<svg width="77" height="58" viewBox="0 0 77 58" fill="none" xmlns="http://www.w3.org/2000/svg">
<path d="M20 27.498C20 22.2513 15.7467 17.998 10.5 17.998C5.2533 17.998 1 22.2513 1 27.498L1 42.998L7.79136 42.998C14.534 42.998 20 37.5321 20 30.7894L20 27.498Z" fill="white" stroke="#235FFE" stroke-width="2"/>
<path d="M43 24.998C43 16.1615 35.8366 8.99805 27 8.99805C18.1634 8.99804 11 16.1615 11 24.998L11 49.998L22.964 49.998C34.0296 49.998 43 41.0276 43 29.9621L43 24.998Z" fill="white" stroke="#235FFE" stroke-width="2"/>
<path d="M74 24.498C74 12.0716 63.9264 1.99805 51.5 1.99804C39.0736 1.99804 29 12.0716 29 24.498L29 56.9981L47.1151 56.9981C61.9632 56.9981 74 44.9613 74 30.1132L74 24.498Z" fill="white" stroke="#235FFE" stroke-width="2"/>
<circle opacity="0.2" cx="67" cy="46.998" r="10" fill="#235FFE"/>
</svg>
