<svg id="Layer_1" data-name="Layer 1" xmlns="http://www.w3.org/2000/svg" xmlns:xlink="http://www.w3.org/1999/xlink" viewBox="0 0 44.97 22.41"><defs><style>.cls-1{fill:none;}.cls-2{clip-path:url(#clip-path);}</style><clipPath id="clip-path"><rect class="cls-1" x="-4.82" y="-4.8" width="50" height="32"/></clipPath></defs><g class="cls-2"><path d="M33.47,22.19a1,1,0,0,1-.27.17.7.7,0,0,1-.32.05.67.67,0,0,1-.31-.07.7.7,0,0,1-.26-.19.74.74,0,0,1-.16-.27.86.86,0,0,1,0-.32.8.8,0,0,1,.09-.3.67.67,0,0,1,.19-.25l9.91-9H.8a.8.8,0,0,1-.56-.24A.76.76,0,0,1,0,11.2a.78.78,0,0,1,.24-.57A.79.79,0,0,1,.8,10.4H42.28l-9.9-9a.82.82,0,0,1-.26-.55.82.82,0,0,1,.21-.58A.78.78,0,0,1,32.89,0a.83.83,0,0,1,.58.21l11.1,10.1a1,1,0,0,1,.29.4,1.21,1.21,0,0,1,.11.49,1.13,1.13,0,0,1-.11.48,1,1,0,0,1-.29.4Z"/></g></svg>