<svg id="Layer_1" data-name="Layer 1" xmlns="http://www.w3.org/2000/svg" viewBox="0 0 74.11 67.01"><defs><style>.cls-1{fill-rule:evenodd;}</style></defs><path class="cls-1" d="M36,0A38.24,38.24,0,0,1,74.11,37.45l-11.59.12c.35,14.84-11.4,27.27-25.88,29.14a32.41,32.41,0,0,1-35-21.87C-5.74,22,12.54-.1,36,0ZM62.29,34.58l8.59-.09A35.16,35.16,0,0,0,32.24,3.2C16.06,4.84,2.73,18.43,3,35c.25,20.25,20.7,34.43,39.68,27.09,9.94-3.78,17.15-13.7,16.83-24.44L51,37.69c.26,7.25-4.67,14-11.35,16.61-13.5,5.29-27.85-5-28.1-19.29-.3-11.73,8.93-21.64,20.33-23.37C46.55,9.24,60.45,19.89,62.29,34.58Zm-11.65.12,8.63-.09a23.63,23.63,0,0,0-27.13-20c-9.76,1.57-17.76,10-17.59,20.11.06,12.28,12.37,21.31,24,16.76,5.55-2.14,9.71-7.75,9.47-13.79l-8.28.09a6.53,6.53,0,0,1-3.93,5.95,8.47,8.47,0,0,1-7.1-.07c-6.61-3.13-7.38-11.8-2.57-16.9A13.54,13.54,0,0,1,37.73,22.7,15.31,15.31,0,0,1,50.64,34.7ZM36.51,37l-1.1-2.18,12.15-.12A12.24,12.24,0,0,0,37,25.64a10.37,10.37,0,0,0-9.29,3.91,8.07,8.07,0,0,0-1.11,8,6.44,6.44,0,0,0,5.73,4,4.73,4.73,0,0,0,3.34-1.27A2.89,2.89,0,0,0,36.51,37Z"/></svg>