<svg width="113" height="90" viewBox="0 0 113 90" fill="none" xmlns="http://www.w3.org/2000/svg">
<path d="M58.6967 56.1325C53.4525 65.2157 46.504 72.1127 39.5563 75.9441C32.5893 79.7862 25.7926 80.4706 20.6499 77.5015C15.5071 74.5323 12.7015 68.304 12.5453 60.3493C12.3896 52.4168 14.8883 42.9507 20.1325 33.8675C25.3768 24.7843 32.3252 17.8873 39.2729 14.0559C46.2399 10.2138 53.0366 9.52936 58.1793 12.4985C63.3221 15.4677 66.1277 21.696 66.2839 29.6507C66.4396 37.5832 63.9409 47.0493 58.6967 56.1325Z" stroke="#235FFE" stroke-width="2"/>
<path d="M92.1693 56.1325C86.9251 65.2157 79.9766 72.1127 73.029 75.9441C66.062 79.7862 59.2653 80.4706 54.1225 77.5015C48.9798 74.5323 46.1741 68.304 46.018 60.3493C45.8623 52.4168 48.361 42.9507 53.6052 33.8675C58.8494 24.7843 65.7979 17.8873 72.7455 14.0559C79.7126 10.2138 86.5092 9.52936 91.652 12.4985C96.7947 15.4677 99.6004 21.696 99.7565 29.6507C99.9122 37.5832 97.4135 47.0493 92.1693 56.1325Z" stroke="#235FFE" stroke-width="2"/>
</svg>
