<svg id="Layer_1" data-name="Layer 1" xmlns="http://www.w3.org/2000/svg" viewBox="0 0 23.02 12"><path d="M11.51,0C5.26,0,.45,5.51.45,5.51L0,6l.45.49s4.38,5,10.21,5.46a6,6,0,0,0,.85.05,5.92,5.92,0,0,0,.84-.05c5.83-.46,10.22-5.46,10.22-5.46L23,6l-.45-.49S17.76,0,11.51,0Zm0,1.5a11,11,0,0,1,4.5,1,5.19,5.19,0,0,1,.75,2.7,5.26,5.26,0,0,1-4.67,5.23h0l-.54,0-.59,0A5.28,5.28,0,0,1,7,2.58H7A10.85,10.85,0,0,1,11.51,1.5Zm0,1.5a2.25,2.25,0,1,0,2.25,2.25A2.25,2.25,0,0,0,11.51,3ZM5,3.7a6.67,6.67,0,0,0,.84,5.14A17.53,17.53,0,0,1,2.16,6,17.6,17.6,0,0,1,5,3.7Zm13.12,0A18.1,18.1,0,0,1,20.86,6a17.53,17.53,0,0,1-3.63,2.84,6.75,6.75,0,0,0,1-3.59A6.58,6.58,0,0,0,18.07,3.7Z"/></svg>