<svg id="Layer_1" data-name="Layer 1" xmlns="http://www.w3.org/2000/svg" viewBox="0 0 35.49 28.32"><path d="M35.33,13.35a2.07,2.07,0,0,0-.48-.65L21.29.38A1.54,1.54,0,0,0,20.23,0a1.49,1.49,0,0,0-1.42,1.54,1.46,1.46,0,0,0,.49,1l11.13,10.1H1.48a1.51,1.51,0,0,0-1,.43A1.53,1.53,0,0,0,0,14.15a1.47,1.47,0,0,0,1.48,1.47h29L19.31,25.72a1.44,1.44,0,0,0-.36.46,1.62,1.62,0,0,0-.16.57,1.6,1.6,0,0,0,.08.58,1.49,1.49,0,0,0,.31.51,1.52,1.52,0,0,0,1.05.48h0a1.51,1.51,0,0,0,.53-.1,1.47,1.47,0,0,0,.5-.32L34.85,15.6a2,2,0,0,0,.47-.66,1.81,1.81,0,0,0,.17-.79A2,2,0,0,0,35.33,13.35Z"/></svg>