<svg id="Layer_1" data-name="Layer 1" xmlns="http://www.w3.org/2000/svg" viewBox="0 0 17.27 24.16"><path d="M8.63,24.16A8.67,8.67,0,0,1,0,15.48a10.51,10.51,0,0,1,1.48-5A22.66,22.66,0,0,0,2.69,7.73l.42-1.14A.75.75,0,0,1,4,6.12l.93.22a.85.85,0,0,1,.65.85L5.42,8.32q.07-.35.18-.69A13.31,13.31,0,0,1,7.79,3.2C9,1.58,10.49.37,11.42.25L13.19,0A.74.74,0,0,1,14,.4a.76.76,0,0,1-.11.85L12.66,2.58A2.5,2.5,0,0,0,12,4.27c0,1.28.83,2.25,1.89,3.47a16.73,16.73,0,0,1,2.23,3,9.84,9.84,0,0,1,1.14,4.7A8.68,8.68,0,0,1,8.63,24.16ZM3.88,8.84c-.35.86-.71,1.58-1.06,2.27A9,9,0,0,0,1.5,15.48a7.14,7.14,0,1,0,14.27,0,8.27,8.27,0,0,0-1-4h0a15.14,15.14,0,0,0-2-2.77c-1.17-1.34-2.26-2.61-2.26-4.45a4,4,0,0,1,.79-2.4A8.59,8.59,0,0,0,9,4.1,11.82,11.82,0,0,0,7,8a13.08,13.08,0,0,0-.46,4.35.76.76,0,0,1-1.33.53,5.52,5.52,0,0,1-.77-1.24A6.57,6.57,0,0,1,3.88,8.84Z"/></svg>