<svg id="Layer_1" data-name="Layer 1" xmlns="http://www.w3.org/2000/svg" viewBox="0 0 25.52 18.95"><defs><style>.cls-1{fill-rule:evenodd;}</style></defs><path class="cls-1" d="M3.46,0V7.31a5.06,5.06,0,0,1,4-2,5,5,0,0,1,2.15.46,3.48,3.48,0,0,1,1.45,1.15,4.25,4.25,0,0,1,.67,1.56,13.78,13.78,0,0,1,.17,2.65V19H8.43v-7a10.76,10.76,0,0,0-.19-2.66,1.74,1.74,0,0,0-.7-.9A2.19,2.19,0,0,0,6.29,8a2.77,2.77,0,0,0-1.53.43,2.43,2.43,0,0,0-1,1.29,7.8,7.8,0,0,0-.31,2.54V19H0V0Z"/><path class="cls-1" d="M17.08,0V7.31a5.09,5.09,0,0,1,4-2,5,5,0,0,1,2.15.46,3.6,3.6,0,0,1,1.44,1.15,4.23,4.23,0,0,1,.66,1.56,14.64,14.64,0,0,1,.18,2.65V19H22.06v-7a10.76,10.76,0,0,0-.19-2.66,1.74,1.74,0,0,0-.7-.9A2.19,2.19,0,0,0,19.92,8a2.75,2.75,0,0,0-1.53.43,2.47,2.47,0,0,0-1,1.29,8.09,8.09,0,0,0-.31,2.54V19H13.62V0Z"/></svg>