<svg id="Layer_1" data-name="Layer 1" xmlns="http://www.w3.org/2000/svg" viewBox="0 0 22 22"><path d="M21.41,9.57h0l-9-9a2,2,0,0,0-2.86,0l-9,9h0A2,2,0,0,0,1.94,13h.42v6.6A2.37,2.37,0,0,0,4.73,22H8.24a.64.64,0,0,0,.64-.64V16.18A1.08,1.08,0,0,1,10,15.1H12a1.08,1.08,0,0,1,1.08,1.08v5.18a.64.64,0,0,0,.64.64h3.51a2.37,2.37,0,0,0,2.37-2.37V13H20a2,2,0,0,0,1.43-3.46Zm-.91,1.95a.74.74,0,0,1-.52.22H19a.64.64,0,0,0-.65.64v7.25a1.08,1.08,0,0,1-1.08,1.08H14.41V16.18A2.38,2.38,0,0,0,12,13.81H10a2.38,2.38,0,0,0-2.37,2.37v4.53H4.73a1.08,1.08,0,0,1-1.08-1.08V12.38A.64.64,0,0,0,3,11.74H2a.76.76,0,0,1-.51-.22.75.75,0,0,1,0-1h0l9-9a.75.75,0,0,1,1,0l9,9h0A.75.75,0,0,1,20.5,11.52Z"/></svg>