<svg id="Layer_1" data-name="Layer 1" xmlns="http://www.w3.org/2000/svg" viewBox="0 0 23.95 23.95"><path d="M23.11,16.45,18,14.25a2.18,2.18,0,0,0-.56-.09,1.7,1.7,0,0,0-1.13.51L14.25,17.2a18.86,18.86,0,0,1-7.5-7.5L9.28,7.64A1.68,1.68,0,0,0,9.8,6.52,2.28,2.28,0,0,0,9.7,6L7.5.84A1.55,1.55,0,0,0,6.19,0H5.86L1.13,1.13A1.45,1.45,0,0,0,0,2.53,21.41,21.41,0,0,0,21.42,24a1.56,1.56,0,0,0,1.46-1.12L24,18.09v-.32A1.53,1.53,0,0,0,23.11,16.45Zm-1.73,6A19.88,19.88,0,0,1,1.5,2.58L6.14,1.5l2.16,5L4.88,9.33a18.29,18.29,0,0,0,9.79,9.75l2.77-3.42,5,2.15Z"/></svg>