<svg id="share" xmlns="http://www.w3.org/2000/svg" viewBox="0 0 354.99 354.99"><path d="M304.08,355H50.91A51,51,0,0,1,0,304.08V50.91A51,51,0,0,1,50.91,0H163.84a13.66,13.66,0,0,1,0,27.31H50.91a23.62,23.62,0,0,0-23.6,23.6V304.08a23.62,23.62,0,0,0,23.6,23.6H304.08a23.63,23.63,0,0,0,23.6-23.6V191.15a13.66,13.66,0,1,1,27.31,0V304.08A51,51,0,0,1,304.08,355Z"/><path d="M355,13.22c0-.3,0-.6,0-.9s-.08-.56-.12-.84,0-.31-.07-.47c-.06-.31-.15-.61-.23-.91l-.09-.38c-.1-.31-.21-.61-.32-.91,0-.11-.08-.23-.13-.34-.12-.31-.27-.61-.42-.91-.05-.09-.09-.2-.14-.29-.17-.33-.36-.64-.56-.95l-.12-.2a13.58,13.58,0,0,0-3.85-3.85l-.25-.15a9.94,9.94,0,0,0-.89-.53l-.37-.18c-.27-.13-.55-.27-.83-.38l-.42-.16-.83-.29L344.8.46,344,.26c-.2,0-.4-.06-.6-.09s-.47-.08-.72-.1A11.66,11.66,0,0,0,341.49,0H245.76a13.66,13.66,0,0,0,0,27.31h62.61L195.15,140.53a13.65,13.65,0,1,0,19.3,19.31L327.68,46.61v62.62a13.66,13.66,0,0,0,27.31,0V13.65C355,13.51,355,13.36,355,13.22Z"/></svg>