<svg id="Layer_1" data-name="Layer 1" xmlns="http://www.w3.org/2000/svg" viewBox="0 0 29.12 12.9"><defs><style>.cls-1{fill-rule:evenodd;}</style></defs><path class="cls-1" d="M29,6a1.19,1.19,0,0,0-.25-.38h0L23.37.26h0A.87.87,0,0,0,22.72,0a.85.85,0,0,0-.63.32.9.9,0,0,0-.22.65.93.93,0,0,0,.27.62l4,3.93H.89a.88.88,0,0,0-.64.28A.92.92,0,0,0,0,6.44a.89.89,0,0,0,.25.64.86.86,0,0,0,.64.29H26.1l-4,3.92a.76.76,0,0,0-.2.28,1.06,1.06,0,0,0-.09.35.87.87,0,0,0,.05.35.79.79,0,0,0,.17.31.85.85,0,0,0,.28.22.8.8,0,0,0,.36.09.93.93,0,0,0,.37-.06.86.86,0,0,0,.29-.21l5.4-5.35h0A1.19,1.19,0,0,0,29,6.89a1.13,1.13,0,0,0,.09-.45A1.12,1.12,0,0,0,29,6Z"/></svg>