<svg id="Layer_1" data-name="Layer 1" xmlns="http://www.w3.org/2000/svg" xmlns:xlink="http://www.w3.org/1999/xlink" viewBox="0 0 44.97 22.41"><defs><style>.cls-1{fill:none;}.cls-2{clip-path:url(#clip-path);}</style><clipPath id="clip-path"><rect class="cls-1" x="-0.22" y="-4.8" width="50" height="32"/></clipPath></defs><g class="cls-2"><path d="M11.5,22.19a1,1,0,0,0,.27.17.86.86,0,0,0,.63,0,.79.79,0,0,0,.42-.46.69.69,0,0,0,0-.32.64.64,0,0,0-.08-.3.69.69,0,0,0-.2-.25l-9.9-9H44.16a.82.82,0,0,0,.81-.8.82.82,0,0,0-.24-.57.79.79,0,0,0-.57-.23H2.68l9.9-9a.79.79,0,0,0,.27-.55.86.86,0,0,0-.21-.58A.82.82,0,0,0,12.08,0a.83.83,0,0,0-.58.21L.39,10.31a1.28,1.28,0,0,0-.29.4,1.38,1.38,0,0,0-.1.49,1.29,1.29,0,0,0,.1.48,1.18,1.18,0,0,0,.29.4Z"/></g></svg>