<svg id="Layer_1" data-name="Layer 1" xmlns="http://www.w3.org/2000/svg" viewBox="0 0 14.24 8.25"><path d="M9.3.55h3.55v.79H9.3ZM5.74,3.69A1.74,1.74,0,0,0,6.93,2c0-1.61-1.3-2-2.8-2H0V8.09H4.25c1.59,0,3.08-.71,3.08-2.35A2,2,0,0,0,5.74,3.69ZM1.93,1.38h1.8c.7,0,1.33.18,1.33.92s-.49,1-1.18,1H1.93ZM4,6.72h-2V4.49H4c.85,0,1.39.32,1.39,1.15S4.77,6.72,4,6.72ZM14.24,5.25a3,3,0,0,0-3.09-3.18,3.06,3.06,0,0,0-3.24,3.1,3,3,0,0,0,3.24,3.08,2.81,2.81,0,0,0,3-2H12.58A1.45,1.45,0,0,1,11.21,7,1.38,1.38,0,0,1,9.65,5.55h4.58C14.23,5.45,14.24,5.35,14.24,5.25ZM9.65,4.53A1.32,1.32,0,0,1,11.1,3.28a1.26,1.26,0,0,1,1.39,1.25Z"/></svg>