<svg id="Layer_1" data-name="Layer 1" xmlns="http://www.w3.org/2000/svg" viewBox="0 0 14.71 14.7"><path d="M4.86,11a1.85,1.85,0,1,0,1.85,1.85A1.85,1.85,0,0,0,4.86,11Zm0,1.37a.48.48,0,1,1-.49.48A.48.48,0,0,1,4.86,12.37Z"/><path d="M10.86,11a1.85,1.85,0,1,0,1.85,1.85A1.85,1.85,0,0,0,10.86,11Zm0,1.37a.48.48,0,1,1-.49.48A.48.48,0,0,1,10.86,12.37Z"/><path d="M14.56,2.32h0A.77.77,0,0,0,14,2.07L3.71,1.92l-.22-.67A1.84,1.84,0,0,0,1.76,0H.68a.68.68,0,0,0,0,1.36H1.76a.48.48,0,0,1,.45.33l2,6.15-.11.27A1.92,1.92,0,0,0,4.3,9.85a1.86,1.86,0,0,0,1.51.85h6.32a.68.68,0,1,0,0-1.35H5.82a.48.48,0,0,1-.39-.23.57.57,0,0,1-.06-.47l0-.1,6.65-.7A2.15,2.15,0,0,0,13.9,6.2L14.67,3A.63.63,0,0,0,14.56,2.32Zm-2,3.58a.75.75,0,0,1-.69.59l-6.48.68L4.15,3.28l9,.13-.59,2.48Z"/></svg>