<svg xmlns="http://www.w3.org/2000/svg" viewBox="0 0 20 24">
    <defs>
        <style>
            .cls-1 {
                fill: #fff;
            }
        </style>
    </defs>
    <path class="cls-1" d="M18,1.3H7a.7.7,0,0,0-.7.7V4H13a2,2,0,0,1,2,2V18.7h3a.7.7,0,0,0,.7-.7V2A.7.7,0,0,0,18,1.3Z" />
    <path class="cls-2"
        d="M18,0H7A2,2,0,0,0,5,2V4H2A2,2,0,0,0,0,6V22a2,2,0,0,0,2,2H13a2,2,0,0,0,2-2V20h3a2,2,0,0,0,2-2V2A2,2,0,0,0,18,0Zm.7,18a.7.7,0,0,1-.7.7H15V6a2,2,0,0,0-2-2H6.3V2A.7.7,0,0,1,7,1.3H18a.7.7,0,0,1,.7.7ZM13,22.7H2a.7.7,0,0,1-.7-.7V6A.7.7,0,0,1,2,5.3H13a.7.7,0,0,1,.7.7V22A.7.7,0,0,1,13,22.7Z" />
    <rect class="cls-1" x="1.3" y="5.3" width="12.4" height="17.4" rx="0.7" />
</svg>