<svg id="Layer_1" data-name="Layer 1" xmlns="http://www.w3.org/2000/svg" viewBox="0 0 23.38 19.47"><path d="M23.37,7h0s0,0,0-.06a.52.52,0,0,0,0-.21l-.06-.11a1.05,1.05,0,0,0-.07-.11L17.72.26A.73.73,0,0,0,17.16,0H6.22a.75.75,0,0,0-.57.26L.19,6.51a.41.41,0,0,0-.07.11l-.07.11a1.55,1.55,0,0,0,0,.21S0,7,0,7H0a.66.66,0,0,0,.06.27s0,.06.05.09a.67.67,0,0,0,.09.14L11.14,19.23l0,0a.66.66,0,0,0,.17.12l.07,0a.62.62,0,0,0,.26.06h0a.66.66,0,0,0,.27-.06l.06,0a.8.8,0,0,0,.19-.13s0,0,0,0L23.17,7.51a.35.35,0,0,0,.08-.13.86.86,0,0,0,.07-.1A.86.86,0,0,0,23.37,7Zm-17,.74,3.06,7.47-7-7.47Zm9,0-3.68,9L8,7.75ZM8.42,6.25,11.69,2,15,6.25ZM17,7.75H20.9l-7,7.46Zm4-1.5H16.85L13.21,1.5h3.61ZM6.56,1.5h3.61L6.52,6.25H2.4Z"/></svg>