<svg id="Layer_1" data-name="Layer 1" xmlns="http://www.w3.org/2000/svg" viewBox="0 0 29.12 12.77"><path d="M28.87,5.75a.88.88,0,0,0-.64-.28H3L7,1.61a.86.86,0,0,0,.21-.29A1,1,0,0,0,7.26,1a1.06,1.06,0,0,0,0-.35A1.11,1.11,0,0,0,7,.32.92.92,0,0,0,6.75.09.73.73,0,0,0,6.4,0,.79.79,0,0,0,6,.07a.72.72,0,0,0-.29.2L.34,5.57A1.09,1.09,0,0,0,.09,6,1.12,1.12,0,0,0,0,6.39a1,1,0,0,0,.09.44,1,1,0,0,0,.25.38l5.4,5.31a.9.9,0,0,0,.62.25h0A.87.87,0,0,0,7,12.46a1,1,0,0,0,.22-.65A.9.9,0,0,0,7,11.19L3,7.31h25.2A.88.88,0,0,0,28.87,7a.93.93,0,0,0,.25-.64A1,1,0,0,0,28.87,5.75Z"/></svg>