<svg xmlns="http://www.w3.org/2000/svg" xmlns:xlink="http://www.w3.org/1999/xlink" viewBox="0 0 276 32">
    <defs>

        <clipPath id="clip-path">
            <rect fill="none" width="276" height="32" />
        </clipPath>
    </defs>

    <path fill="#151515" clip-path="url(#clip-path)"
        d="M261.28,27a1,1,0,0,1-.27.17.65.65,0,0,1-.31.05.78.78,0,0,1-.31-.07.7.7,0,0,1-.26-.19,1,1,0,0,1-.17-.27.85.85,0,0,1,0-.32.79.79,0,0,1,.08-.3.86.86,0,0,1,.2-.26l9.91-9H-76.38a.82.82,0,0,1-.57-.24.79.79,0,0,1-.23-.56.79.79,0,0,1,.23-.57.81.81,0,0,1,.57-.23H270.1l-9.9-9a.8.8,0,0,1,.5-1.39.76.76,0,0,1,.58.21l11.11,10.1a1.28,1.28,0,0,1,.29.4,1.19,1.19,0,0,1,.1.49,1.15,1.15,0,0,1-.1.48,1.28,1.28,0,0,1-.29.4Z" />

</svg>