<svg id="Layer_1" data-name="Layer 1" xmlns="http://www.w3.org/2000/svg" viewBox="0 0 23.25 23.25"><path d="M11.63,0a11.63,11.63,0,1,0,0,23.25A11.91,11.91,0,0,0,18.52,21a.59.59,0,0,0,.09-.8l-.23-.28a.59.59,0,0,0-.8-.09,10.19,10.19,0,0,1-5.95,1.92,10.13,10.13,0,1,1,0-20.25c5.53,0,10.12,3.8,10.12,9.38,0,3.42-2.48,5.1-5.48,5.1-.89,0-1.08-.51-.89-1.59l1.5-7.69a.59.59,0,0,0-.57-.7h-.56a.59.59,0,0,0-.56.47A10.29,10.29,0,0,0,15,7.69a3.5,3.5,0,0,0-3.42-2c-3.19,0-6.24,3-6.24,7.36,0,2.86,1.6,4.6,4.22,4.6a5.08,5.08,0,0,0,4.08-2.21c-.05,1.31.8,2,2.16,2,5.06,0,7.45-2.67,7.45-6.51C23.25,4.5,18.05,0,11.63,0ZM9.84,16.08c-1.73,0-2.76-1.17-2.76-3.14,0-3.52,2.39-5.72,4.55-5.72,1.82,0,2.71,1.31,2.71,3.09C14.34,13,12.56,16.08,9.84,16.08Z"/></svg>