<svg id="Layer_1" data-name="Layer 1" xmlns="http://www.w3.org/2000/svg" viewBox="0 0 8.82 17.54"><path d="M7.57,17.54a1.23,1.23,0,0,0,.8-.29,1.26,1.26,0,0,0,.31-.38,1.24,1.24,0,0,0,.09-1,1.14,1.14,0,0,0-.24-.43l-5.6-6.7,5.4-6.72a1,1,0,0,0,.23-.43,1.34,1.34,0,0,0,0-.49A1.25,1.25,0,0,0,8.46.69,1.15,1.15,0,0,0,8.15.31a1.26,1.26,0,0,0-1-.3,1.17,1.17,0,0,0-.48.15A1.41,1.41,0,0,0,6.32.5L.28,8A1.25,1.25,0,0,0,0,8.79a1.3,1.3,0,0,0,.28.8l6.25,7.5a1.35,1.35,0,0,0,.47.35A1.4,1.4,0,0,0,7.57,17.54Z"/></svg>