<svg id="Layer_1" data-name="Layer 1" xmlns="http://www.w3.org/2000/svg" viewBox="0 0 71 69"><path d="M71,29.5c0-1.15-.94-2.26-2.79-3.31A22.79,22.79,0,0,0,63.9,24.4a21.82,21.82,0,0,0,4.31-1.9C70.06,21.39,71,20.22,71,19s-.94-2.39-2.79-3.5a22.09,22.09,0,0,0-4.31-1.9,27.45,27.45,0,0,0,3.27-1.26,7.56,7.56,0,0,0,3.54-2.75A2.25,2.25,0,0,0,71,8.15a2.91,2.91,0,0,0-.76-1.43,11.74,11.74,0,0,0-4.47-2.67,46.24,46.24,0,0,0-7.92-2.16A122.25,122.25,0,0,0,35.5,0V2A120.79,120.79,0,0,1,57.44,3.85,45.61,45.61,0,0,1,65,5.91a9.68,9.68,0,0,1,3.7,2.14,1,1,0,0,1,.28.44s0,.12,0,.15c-.11.2-.63.94-2.63,1.89a32.71,32.71,0,0,1-6.12,2A107.85,107.85,0,0,0,35.5,10a107.85,107.85,0,0,0-24.7,2.54c-1.18-.28-2.29-.58-3.29-.91A15.4,15.4,0,0,1,2.76,9.39C2.1,8.87,2,8.54,2,8.49S2.13,7.91,3.63,7A25.19,25.19,0,0,1,9.47,4.79L9,2.86A26.09,26.09,0,0,0,2.61,5.3C1.09,6.2.22,7.14,0,8.11S.35,10,1.52,11a17.67,17.67,0,0,0,5.37,2.57l.22.07a21.94,21.94,0,0,0-4.32,1.9C.94,16.61,0,17.78,0,19s.94,2.39,2.79,3.5A21.82,21.82,0,0,0,7.1,24.4a22.79,22.79,0,0,0-4.31,1.79C.94,27.24,0,28.35,0,29.5s.94,2.26,2.79,3.31a22.36,22.36,0,0,0,4,1.69,22.36,22.36,0,0,0-4,1.69C.94,37.24,0,38.35,0,39.5s.94,2.26,2.79,3.31A23.07,23.07,0,0,0,7.1,44.6a22.09,22.09,0,0,0-4.31,1.9C.94,47.61,0,48.79,0,50s.94,2.39,2.79,3.5A22.09,22.09,0,0,0,7.1,55.4a23.07,23.07,0,0,0-4.31,1.79C.94,58.24,0,59.35,0,60.5s.94,2.26,2.79,3.31a30.37,30.37,0,0,0,7.61,2.7A112.69,112.69,0,0,0,35.5,69a112.69,112.69,0,0,0,25.1-2.49,30.37,30.37,0,0,0,7.61-2.7C70.06,62.76,71,61.65,71,60.5s-.94-2.26-2.79-3.31A23.07,23.07,0,0,0,63.9,55.4a22.09,22.09,0,0,0,4.31-1.9C70.06,52.39,71,51.21,71,50s-.94-2.39-2.79-3.5a22.09,22.09,0,0,0-4.31-1.9,23.07,23.07,0,0,0,4.31-1.79C70.06,41.76,71,40.65,71,39.5s-.94-2.26-2.79-3.31a22.36,22.36,0,0,0-4-1.69,22.36,22.36,0,0,0,4-1.69C70.06,31.76,71,30.65,71,29.5ZM35.5,12a117.38,117.38,0,0,1,19.69,1.54c-1.68.28-3.47.52-5.35.72a140.1,140.1,0,0,1-23.25.46,107.09,107.09,0,0,1-10.78-1.18A117.38,117.38,0,0,1,35.5,12ZM2,19c0-.26.38-.93,1.82-1.79a27.3,27.3,0,0,1,7-2.61,98.84,98.84,0,0,0,15.67,2.12c3,.19,6,.28,9,.28a136.51,136.51,0,0,0,14.57-.75A86.06,86.06,0,0,0,60.21,14.6a27.3,27.3,0,0,1,7,2.61C68.62,18.07,69,18.74,69,19s-.38.93-1.82,1.79a27.39,27.39,0,0,1-7,2.61A113.87,113.87,0,0,0,35.5,21a113.87,113.87,0,0,0-24.7,2.4,27.24,27.24,0,0,1-7-2.61C2.38,19.93,2,19.26,2,19Zm53.2,5.46A117.59,117.59,0,0,1,35.5,26a117.59,117.59,0,0,1-19.7-1.54A123.66,123.66,0,0,1,35.5,23,123.66,123.66,0,0,1,55.2,24.46ZM69,60.5c0,.15-.35.76-1.77,1.57a29,29,0,0,1-7.09,2.5A111.06,111.06,0,0,1,35.5,67a111.06,111.06,0,0,1-24.64-2.43,29.16,29.16,0,0,1-7.08-2.5C2.34,61.26,2,60.65,2,60.5s.34-.76,1.77-1.57a29,29,0,0,1,7-2.48A107.83,107.83,0,0,0,35.5,59a107.83,107.83,0,0,0,24.71-2.55,28.71,28.71,0,0,1,7,2.48C68.65,59.74,69,60.35,69,60.5Zm-53.2-5A123.66,123.66,0,0,1,35.5,54a123.66,123.66,0,0,1,19.7,1.46A117.5,117.5,0,0,1,35.5,57,117.5,117.5,0,0,1,15.8,55.46ZM69,50c0,.26-.38.93-1.82,1.79a27.39,27.39,0,0,1-7,2.61A113.87,113.87,0,0,0,35.5,52a113.87,113.87,0,0,0-24.7,2.4,27.39,27.39,0,0,1-7-2.61C2.38,50.93,2,50.26,2,50s.38-.93,1.82-1.79a27.39,27.39,0,0,1,7-2.61A113.87,113.87,0,0,0,35.5,48a113.87,113.87,0,0,0,24.7-2.4,27.39,27.39,0,0,1,7,2.61C68.62,49.07,69,49.74,69,50ZM15.8,44.54A117.5,117.5,0,0,1,35.5,43a117.5,117.5,0,0,1,19.7,1.54A123.66,123.66,0,0,1,35.5,46,123.66,123.66,0,0,1,15.8,44.54Zm53.2-5c0,.15-.35.76-1.77,1.57a29,29,0,0,1-7,2.48A107.83,107.83,0,0,0,35.5,41a107.83,107.83,0,0,0-24.71,2.55,28.71,28.71,0,0,1-7-2.48C2.34,40.26,2,39.65,2,39.5s.34-.76,1.77-1.57a28.28,28.28,0,0,1,6.71-2.4A113.48,113.48,0,0,0,35.5,38a113.48,113.48,0,0,0,25-2.47,28,28,0,0,1,6.7,2.4C68.65,38.74,69,39.35,69,39.5Zm-53.44-5A123.56,123.56,0,0,1,35.5,33a123.56,123.56,0,0,1,19.94,1.5A123.56,123.56,0,0,1,35.5,36,123.56,123.56,0,0,1,15.56,34.5Zm45-1A113.48,113.48,0,0,0,35.5,31a113.48,113.48,0,0,0-25,2.47,28,28,0,0,1-6.7-2.4C2.34,30.26,2,29.65,2,29.5s.34-.76,1.78-1.57a28.71,28.71,0,0,1,7-2.48A107.83,107.83,0,0,0,35.5,28a107.89,107.89,0,0,0,24.71-2.55,28.71,28.71,0,0,1,7,2.48c1.43.81,1.77,1.42,1.78,1.57s-.35.76-1.77,1.57A28.28,28.28,0,0,1,60.52,33.47Z"/></svg>