<svg xmlns="http://www.w3.org/2000/svg" viewBox="0 0 89 89">
    <defs>
        <style>
            .cls-1 {
                fill-rule: evenodd;
            }
        </style>
    </defs>
    <path class="cls-1"
        d="M42.62,39l.73,1.19,0-1.39L44.5,0l1.11,38.81,0,1.39L46.38,39,66.75,6,48.31,40.13l-.66,1.22,1.22-.66L83,22.25,50,42.62l-1.19.73,1.39,0L89,44.5,50.19,45.61l-1.39,0,1.19.73L83,66.75,48.87,48.31l-1.22-.66.66,1.22L66.75,83,46.38,50l-.73-1.19,0,1.39L44.5,89,43.39,50.19l0-1.39L42.62,50,22.25,83,40.69,48.87l.66-1.22-1.22.66L6,66.75,39,46.38l1.19-.73-1.39,0L0,44.5l38.81-1.11,1.39,0L39,42.62,6,22.25,40.13,40.69l1.22.66-.66-1.22L22.25,6Z" />
</svg>