<svg width="59" height="59" viewBox="0 0 59 59" fill="none" xmlns="http://www.w3.org/2000/svg">
<circle opacity="0.2" cx="42.501" cy="28.0128" r="7.7276" fill="#235FFE"/>
<path d="M18.2151 7.58821C17.3404 2.73782 23.7989 0.411341 26.2168 4.60072L30.5981 12.192C32.3124 15.1622 36.0646 16.2287 39.0757 14.5934L46.7569 10.4218C50.983 8.12663 55.3019 13.4934 52.0277 17.1781L46.2078 23.7278C43.9332 26.2875 44.0823 30.2003 46.5494 32.5725L52.855 38.6357C56.396 42.0406 52.5122 47.7473 48.1165 45.7951L40.1383 42.2517C37.0086 40.8618 33.3524 42.2273 31.8734 45.3223L28.0893 53.2411C25.9919 57.6301 19.3859 55.7953 19.883 50.9092L20.7721 42.1697C21.1193 38.7579 18.7155 35.6758 15.3246 35.2172L6.68031 34.0481C1.88504 33.3996 1.59768 26.4878 6.35244 25.4518L14.8802 23.5938C18.223 22.8655 20.3817 19.603 19.7734 16.2296L18.2151 7.58821Z" stroke="#235FFE" stroke-width="2"/>
</svg>
